<svg width="391" height="303" viewBox="0 0 391 303" fill="none" xmlns="http://www.w3.org/2000/svg">
<path d="M90.2361 438.371C64.2421 412.294 43.6519 380.768 30.4719 346.263C17.21 311.791 11.4145 274.489 13.3317 237.831C15.1773 201.066 24.9013 164.534 41.657 131.667C58.4036 98.7862 82.0387 69.5304 110.632 46.3032C139.181 23.0321 172.707 5.76095 208.382 -3.83012C244.1 -13.4795 281.497 -15.4805 317.943 -9.90379C391.177 1.00733 458.391 44.5128 498.629 106.334" stroke="#E0E4F1" stroke-opacity="0.09" stroke-width="2"/>
<path d="M166.587 478.425C100.988 446.652 50.7839 385.316 32.9228 314.49C23.891 279.159 22.5914 242.171 29.0496 206.344C35.5128 170.514 49.9209 136.126 70.8709 106.413C112.414 46.6682 181.033 6.51655 253.742 0.162722C289.858 -3.21051 326.8 1.12283 361.177 13.2589C395.556 25.2887 427.167 44.933 453.238 70.2399" stroke="#E0E4F1" stroke-opacity="0.09" stroke-width="2"/>
<path d="M94.9008 408.016C72.1348 381.505 55.2103 349.948 45.8401 316.218C36.4474 282.467 34.5486 246.847 40.2286 212.337C51.2092 143.014 94.5695 80.05 154.954 44.6141C215.136 8.48299 291.141 1.12708 357.192 24.6048C423.474 47.5518 478.06 100.913 502.543 166.628" stroke="#E0E4F1" stroke-opacity="0.09" stroke-width="2"/>
<path d="M143.976 436.92C112.968 414.565 87.6533 384.372 71.2227 349.822C54.6909 315.317 47.2235 276.563 49.4342 238.444C51.5191 200.273 63.4997 162.649 83.871 130.29C104.154 97.8742 132.698 70.7186 166.09 52.0743C232.81 14.0863 318.701 13.4881 385.983 50.4424C419.649 68.5989 448.56 95.3568 469.342 127.45C490.21 159.492 502.71 196.949 505.372 235.084" stroke="#E0E4F1" stroke-opacity="0.09" stroke-width="2"/>
<path d="M484.358 187.676C464.919 123.407 413.69 69.9065 350.33 47.6834C287.245 24.809 213.661 33.5382 157.968 71.11C130.056 89.6173 106.52 114.67 89.8179 143.703C73.0908 172.719 63.2778 205.679 61.4383 239.122C59.5068 272.554 65.3821 306.431 78.689 337.173C91.9079 367.951 112.471 395.51 138.087 417.078" stroke="#E0E4F1" stroke-opacity="0.09" stroke-width="2"/>
<path d="M477.936 211.225C471.081 176.613 454.897 143.951 431.693 117.348C408.522 90.7156 378.386 70.1787 345.069 58.5784C311.811 46.881 275.399 44.1171 240.688 50.4505C205.977 56.7399 172.996 72.2595 146.025 95.0501C118.971 117.734 97.958 147.54 85.7412 180.631C73.4527 213.686 70.1091 250.032 75.8157 284.855C81.4569 319.686 96.4427 352.908 118.74 380.282C140.948 407.724 170.392 429.255 203.263 442.05" stroke="#E0E4F1" stroke-opacity="0.09" stroke-width="2"/>
<path d="M191.335 396.178C167.256 381.847 146.807 361.297 132.556 337.174C118.242 313.067 110.197 285.502 109.286 257.397C108.299 229.199 114.377 201.142 126.977 176.125C139.498 151.09 158.507 129.213 181.553 113.231C204.574 97.188 231.509 87.1123 259.388 84.1818C287.392 81.194 315.982 85.1961 341.787 95.9191C393.837 116.959 433.608 166.07 443.134 221.278" stroke="#E0E4F1" stroke-opacity="0.09" stroke-width="2"/>
<path d="M469.865 249.459C469.596 218.293 461.643 187.375 446.785 160.045C432.001 132.691 410.418 108.999 384.572 91.6859C358.753 74.3218 328.727 63.4045 297.781 60.2215C266.784 56.9914 235.072 61.2389 206.235 72.7993C148.204 95.5162 102.998 148.354 89.8005 209.229C82.9733 239.525 83.6522 271.675 91.7198 301.635C99.7505 331.646 115.299 359.613 136.502 382.403" stroke="#E0E4F1" stroke-opacity="0.09" stroke-width="2"/>
<path d="M127.9 352.318C112.162 329.041 102.059 302.134 98.5674 274.288C95.094 246.377 98.0552 217.633 107.472 191.27C125.891 138.199 170.98 95.0562 224.789 79.0142C251.527 70.8158 280.478 69.0509 308.131 73.7831C335.775 78.4876 362.237 89.775 384.785 106.552C430.303 139.887 458.331 195.141 457.871 251.547" stroke="#E0E4F1" stroke-opacity="0.09" stroke-width="2"/>
<path d="M433.796 249.842C433.544 219.027 424.056 188.843 406.69 163.518C389.426 138.169 364.474 118.016 336.149 106.603C307.992 95.0928 275.892 92.2717 245.907 98.419C215.978 104.488 187.966 119.732 166.389 141.626C144.742 163.449 129.809 191.606 124.067 221.603C118.215 251.678 121.369 283.712 133.204 311.75C144.919 339.959 165.343 364.705 190.885 381.677C216.399 398.754 246.666 407.898 277.508 407.86" stroke="#E0E4F1" stroke-opacity="0.09" stroke-width="2"/>
<path d="M229.911 524C187.777 516.709 147.36 499.387 113.115 473.938C78.8045 448.564 50.5017 415.226 31.0721 377.142C-8.29632 300.818 -9.07241 206.826 29.1068 129.9C66.3873 52.8329 141.09 -4.53669 225.574 -20.1094C267.581 -28.0962 311.046 -26.2965 352.344 -14.7392C393.566 -3.19719 431.903 18.1291 463.442 46.8257" stroke="#E0E4F1" stroke-opacity="0.09" stroke-width="2"/>
<path d="M360.524 172.69C383.339 195.276 395.991 228.219 394.099 260.226C392.628 292.446 376.647 323.72 351.627 343.846C326.781 364.326 292.774 373.472 261.135 368.396C229.127 363.588 199.786 344.627 182.249 317.656" stroke="#E0E4F1" stroke-opacity="0.09" stroke-width="2"/>
<path d="M325.189 159.323C352.644 172.641 373.592 198.24 381.116 227.924C388.768 257.386 382.98 290.095 365.214 314.985C347.876 339.969 319.131 356.766 288.695 359.442C258.525 362.483 226.893 351.469 205.238 330.111" stroke="#E0E4F1" stroke-opacity="0.09" stroke-width="2"/>
<path d="M351.526 191.901C369.85 212.933 378.026 242.452 373.322 269.864C368.928 297.522 351.669 322.592 327.61 336.708C303.58 351.117 273.362 354.045 247.013 344.684C220.569 335.527 198.873 314.295 189.092 288.093" stroke="#E0E4F1" stroke-opacity="0.09" stroke-width="2"/>
<path d="M329.038 184.472C352.609 201.114 366.566 230.384 364.633 259.18C363.265 288.079 345.993 315.437 320.714 329.342C295.577 343.664 263.277 343.868 237.92 329.966C212.431 316.425 194.794 289.311 192.992 260.444" stroke="#E0E4F1" stroke-opacity="0.09" stroke-width="2"/>
<path d="M205.948 276.736C212.811 299.355 230.838 318.171 253.131 326.013C275.336 334.049 301.244 330.999 320.844 317.767C340.602 304.811 353.658 282.249 354.825 258.625C356.331 235.039 346.059 211.073 327.842 195.984" stroke="#E0E4F1" stroke-opacity="0.09" stroke-width="2"/>
<path d="M213.694 267.349C218.018 289.884 235.083 309.509 256.832 316.895C278.466 324.622 304.005 320.068 321.449 305.061C339.224 290.376 348.205 266.169 344.243 243.432C340.729 220.744 324.348 200.571 302.866 192.414" stroke="#E0E4F1" stroke-opacity="0.09" stroke-width="2"/>
<path d="M297.63 222.54C308.339 228.846 315.324 240.649 315.62 252.955C316.168 265.416 310.026 277.471 299.774 284.575C289.871 291.71 275.931 293.096 264.686 288.369C253.297 283.811 244.514 272.883 242.485 260.915" stroke="#E0E4F1" stroke-opacity="0.09" stroke-width="2"/>
<path d="M222.238 254.866C222.236 273.243 231.972 291.086 247.308 301.243C262.378 311.59 282.785 313.648 299.706 306.775C316.736 300.121 330.075 284.538 333.92 266.697C338.035 248.769 332.843 229.162 320.205 215.8" stroke="#E0E4F1" stroke-opacity="0.09" stroke-width="2"/>
<path d="M317.533 228.162C325.735 240.094 327.734 256.213 322.808 269.864C318.061 283.554 306.298 294.814 292.429 298.943C278.522 303.217 262.577 300.602 250.99 291.819C239.153 283.109 231.972 268.902 232.044 254.252" stroke="#E0E4F1" stroke-opacity="0.09" stroke-width="2"/>
<path d="M251.709 254.553C251.58 265.223 258.717 275.437 268.622 279.357C273.353 281.319 279.094 281.834 284.281 280.774C289.397 279.737 294.226 277.128 298.009 273.285C301.798 269.451 304.346 264.608 305.33 259.479C306.357 254.265 305.796 248.553 303.772 243.837C299.734 233.931 289.446 226.999 278.766 227.178" stroke="#E0E4F1" stroke-opacity="0.09" stroke-width="2"/>
<path d="M300.304 130.815C338.78 137.256 372.963 162.711 390.401 197.337C408.29 232.013 408.594 274.426 391.306 309.383C374.415 344.322 340.617 370.222 302.273 377.334C264.452 384.872 222.951 373.282 194.51 347.012" stroke="#E0E4F1" stroke-opacity="0.09" stroke-width="2"/>
</svg>
