<svg width="320" height="303" viewBox="0 0 320 303" fill="none" xmlns="http://www.w3.org/2000/svg">
<mask id="mask0_268_845" style="mask-type:alpha" maskUnits="userSpaceOnUse" x="0" y="0" width="321" height="303">
<rect width="321" height="303" fill="#3E5296"/>
</mask>
<g mask="url(#mask0_268_845)">
<path d="M119.393 373.792C101.51 355.851 87.3438 334.162 78.2762 310.423C69.1522 286.707 65.165 261.044 66.484 235.824C67.7537 210.53 74.4437 185.397 85.9714 162.784C97.4927 140.163 113.753 120.036 133.425 104.056C153.067 88.0455 176.132 76.1632 200.676 69.5647C225.249 62.9261 250.978 61.5494 276.052 65.3861C326.436 72.8928 372.678 102.824 400.361 145.356" stroke="#E0E4F1" stroke-opacity="0.09" stroke-width="2"/>
<path d="M171.921 401.349C126.79 379.489 92.2505 337.291 79.9624 288.564C73.7486 264.257 72.8545 238.809 77.2976 214.161C81.7442 189.511 91.6568 165.852 106.07 145.41C134.651 104.307 181.86 76.6831 231.883 72.3118C256.73 69.991 282.145 72.9723 305.796 81.3218C329.449 89.598 351.196 103.113 369.132 120.524" stroke="#E0E4F1" stroke-opacity="0.09" stroke-width="2"/>
<path d="M122.602 352.908C106.94 334.669 95.2958 312.958 88.8492 289.753C82.3872 266.532 81.0809 242.026 84.9886 218.284C92.5431 170.591 122.374 127.273 163.918 102.894C205.322 78.0359 257.612 72.9751 303.054 89.1274C348.655 104.915 386.21 141.626 403.054 186.837" stroke="#E0E4F1" stroke-opacity="0.09" stroke-width="2"/>
<path d="M156.365 372.793C135.032 357.414 117.616 336.642 106.312 312.872C94.9385 289.132 89.8011 262.47 91.322 236.245C92.7563 209.984 100.999 184.099 115.014 161.837C128.969 139.536 148.606 120.853 171.58 108.026C217.481 81.8908 276.573 81.4793 322.862 106.903C346.024 119.395 365.914 137.804 380.212 159.883C394.569 181.928 403.168 207.697 405 233.934" stroke="#E0E4F1" stroke-opacity="0.09" stroke-width="2"/>
<path d="M390.542 201.318C377.169 157.102 341.925 120.294 298.334 105.005C254.932 89.2679 204.308 95.2734 165.991 121.122C146.789 133.855 130.596 151.091 119.105 171.065C107.597 191.028 100.846 213.703 99.5806 236.711C98.2518 259.713 102.294 283.019 111.449 304.17C120.543 325.344 134.691 344.304 152.314 359.143" stroke="#E0E4F1" stroke-opacity="0.09" stroke-width="2"/>
<path d="M386.125 217.519C381.409 193.707 370.274 171.236 354.31 152.933C338.368 134.611 317.636 120.482 294.714 112.501C271.833 104.453 246.782 102.552 222.902 106.909C199.021 111.236 176.331 121.913 157.775 137.593C139.163 153.199 124.706 173.705 116.301 196.471C107.846 219.212 105.546 244.218 109.472 268.176C113.353 292.138 123.663 314.995 139.004 333.828C154.282 352.707 174.539 367.52 197.153 376.323" stroke="#E0E4F1" stroke-opacity="0.09" stroke-width="2"/>
<path d="M188.947 344.764C172.382 334.904 158.313 320.767 148.509 304.17C138.661 287.585 133.126 268.621 132.499 249.285C131.82 229.885 136.002 210.582 144.67 193.371C153.285 176.147 166.362 161.096 182.217 150.101C198.056 139.064 216.587 132.132 235.767 130.115C255.033 128.06 274.703 130.813 292.456 138.191C328.265 152.666 355.627 186.453 362.181 224.435" stroke="#E0E4F1" stroke-opacity="0.09" stroke-width="2"/>
<path d="M380.571 243.824C380.386 222.382 374.915 201.111 364.693 182.308C354.522 163.489 339.673 147.189 321.891 135.278C304.129 123.332 283.471 115.821 262.18 113.631C240.855 111.409 219.037 114.331 199.198 122.285C159.274 137.913 128.173 174.265 119.093 216.146C114.396 236.99 114.863 259.108 120.414 279.72C125.939 300.367 136.636 319.608 151.223 335.287" stroke="#E0E4F1" stroke-opacity="0.09" stroke-width="2"/>
<path d="M145.305 314.589C134.477 298.574 127.527 280.063 125.125 260.905C122.735 241.704 124.772 221.928 131.251 203.79C143.923 167.278 174.944 137.597 211.963 126.56C230.358 120.92 250.276 119.706 269.301 122.961C288.32 126.198 306.525 133.964 322.038 145.506C353.354 168.44 372.636 206.454 372.32 245.26" stroke="#E0E4F1" stroke-opacity="0.09" stroke-width="2"/>
<path d="M355.757 244.087C355.584 222.887 349.055 202.121 337.108 184.697C325.231 167.258 308.064 153.393 288.577 145.541C269.206 137.622 247.121 135.681 226.492 139.91C205.902 144.086 186.629 154.574 171.785 169.636C156.892 184.65 146.618 204.022 142.668 224.659C138.642 245.35 140.812 267.389 148.954 286.679C157.014 306.086 171.065 323.111 188.638 334.787C206.191 346.536 227.014 352.827 248.233 352.801" stroke="#E0E4F1" stroke-opacity="0.09" stroke-width="2"/>
<path d="M215.487 432.703C186.499 427.687 158.694 415.77 135.133 398.262C111.528 380.804 92.0564 357.869 78.6891 331.667C51.6043 279.158 51.0703 214.493 77.337 161.569C102.985 108.548 154.38 69.0785 212.503 58.3647C241.403 52.87 271.306 54.1081 299.719 62.0593C328.079 70.0001 354.455 84.6722 376.153 104.415" stroke="#E0E4F1" stroke-opacity="0.09" stroke-width="2"/>
<path d="M305.347 191.007C321.043 206.546 329.747 229.21 328.446 251.231C327.434 273.398 316.439 294.914 299.225 308.76C282.132 322.85 258.736 329.143 236.969 325.651C214.947 322.342 194.762 309.298 182.696 290.742" stroke="#E0E4F1" stroke-opacity="0.09" stroke-width="2"/>
<path d="M281.037 181.812C299.925 190.974 314.337 208.586 319.513 229.008C324.778 249.278 320.796 271.781 308.573 288.904C296.645 306.093 276.869 317.649 255.929 319.49C235.173 321.583 213.41 314.005 198.512 299.311" stroke="#E0E4F1" stroke-opacity="0.09" stroke-width="2"/>
<path d="M299.157 204.225C311.763 218.694 317.388 239.003 314.152 257.862C311.129 276.89 299.254 294.138 282.703 303.85C266.17 313.763 245.381 315.777 227.253 309.337C209.06 303.037 194.133 288.43 187.404 270.403" stroke="#E0E4F1" stroke-opacity="0.09" stroke-width="2"/>
<path d="M283.685 199.113C299.902 210.563 309.504 230.7 308.174 250.511C307.232 270.393 295.349 289.215 277.958 298.782C260.664 308.635 238.443 308.775 220.997 299.211C203.461 289.895 191.327 271.241 190.087 251.381" stroke="#E0E4F1" stroke-opacity="0.09" stroke-width="2"/>
<path d="M199.001 262.59C203.722 278.151 216.125 291.096 231.462 296.491C246.738 302.02 264.563 299.921 278.048 290.818C291.641 281.905 300.623 266.382 301.426 250.129C302.462 233.902 295.395 217.415 282.862 207.034" stroke="#E0E4F1" stroke-opacity="0.09" stroke-width="2"/>
<path d="M204.33 256.131C207.305 271.635 219.045 285.137 234.009 290.218C248.892 295.535 266.462 292.401 278.464 282.077C290.693 271.974 296.872 255.319 294.146 239.677C291.728 224.068 280.459 210.189 265.679 204.577" stroke="#E0E4F1" stroke-opacity="0.09" stroke-width="2"/>
<path d="M262.077 225.304C269.444 229.642 274.25 237.763 274.454 246.229C274.831 254.802 270.605 263.095 263.551 267.983C256.738 272.892 247.148 273.845 239.412 270.593C231.576 267.457 225.534 259.939 224.138 251.705" stroke="#E0E4F1" stroke-opacity="0.09" stroke-width="2"/>
<path d="M210.208 247.544C210.207 260.187 216.905 272.462 227.456 279.45C237.824 286.569 251.863 287.984 263.505 283.256C275.221 278.678 284.399 267.957 287.044 255.683C289.875 243.349 286.303 229.86 277.608 220.667" stroke="#E0E4F1" stroke-opacity="0.09" stroke-width="2"/>
<path d="M275.77 229.172C281.412 237.381 282.788 248.47 279.399 257.862C276.133 267.281 268.04 275.027 258.498 277.868C248.931 280.808 237.961 279.009 229.989 272.967C221.846 266.974 216.905 257.2 216.955 247.121" stroke="#E0E4F1" stroke-opacity="0.09" stroke-width="2"/>
<path d="M230.484 247.328C230.395 254.669 235.305 261.696 242.12 264.393C245.375 265.743 249.325 266.097 252.893 265.368C256.413 264.655 259.735 262.859 262.337 260.216C264.944 257.578 266.697 254.246 267.374 250.717C268.081 247.13 267.695 243.2 266.302 239.956C263.524 233.141 256.446 228.371 249.099 228.494" stroke="#E0E4F1" stroke-opacity="0.09" stroke-width="2"/>
<path d="M263.917 162.198C290.387 166.629 313.905 184.142 325.902 207.964C338.209 231.821 338.419 261 326.524 285.05C314.904 309.088 291.651 326.906 265.271 331.8C239.251 336.986 210.699 329.012 191.132 310.938" stroke="#E0E4F1" stroke-opacity="0.09" stroke-width="2"/>
</g>
</svg>
