<svg width="18" height="18" viewBox="0 0 18 18" fill="none" xmlns="http://www.w3.org/2000/svg">
<g clip-path="url(#clip0_335_1568)">
<path d="M5.70472 8.73733C6.752 10.7955 8.43563 12.4791 10.4975 13.5264L12.0975 11.9228C12.2975 11.7228 12.5847 11.6646 12.8356 11.7446C13.6502 12.0137 14.5265 12.1591 15.432 12.1591C15.8356 12.1591 16.1593 12.4828 16.1593 12.8864V15.4319C16.1593 15.8355 15.8356 16.1591 15.432 16.1591C8.6029 16.1591 3.06836 10.6246 3.06836 3.79551C3.06836 3.39187 3.39563 3.06824 3.79563 3.06824H6.34109C6.74472 3.06824 7.06836 3.39187 7.06836 3.79551C7.06836 4.70096 7.21381 5.57733 7.4829 6.39187C7.5629 6.64278 7.50472 6.93006 7.30472 7.13006L5.70472 8.73733Z" fill="#E0222D"/>
</g>
<defs>
<clipPath id="clip0_335_1568">
<rect width="18" height="18" fill="white"/>
</clipPath>
</defs>
</svg>
