<svg width="18" height="18" viewBox="0 0 18 18" fill="none" xmlns="http://www.w3.org/2000/svg">
<g clip-path="url(#clip0_165_222)">
<path d="M8.99997 0.684814C11.2953 0.684814 13.3755 1.61575 14.8799 3.12009L14.9182 3.16157C16.3997 4.66345 17.3148 6.72536 17.3148 8.99962C17.3148 11.2957 16.3835 13.3752 14.8792 14.8795L14.8373 14.9178C13.3354 16.4 11.2725 17.3151 8.99997 17.3151C6.70673 17.3151 4.62724 16.3831 3.12255 14.8777C1.61645 13.3752 0.684814 11.2957 0.684814 8.99962C0.684814 6.70356 1.61575 4.62442 3.12009 3.12009C4.62442 1.61575 6.70392 0.684814 8.99997 0.684814Z" fill="white"/>
<path d="M8.99996 1.39185C10.3879 1.39185 11.6891 1.7638 12.8098 2.41278H5.19008C6.31086 1.7638 7.61199 1.39185 8.99996 1.39185ZM14.4787 3.722C14.8007 4.05528 15.0911 4.4188 15.3478 4.80657H2.6518C2.90809 4.41669 3.19989 4.05212 3.52086 3.722H14.4787ZM16.04 6.11157C16.1841 6.46208 16.3023 6.82454 16.393 7.1986H1.60696C1.69871 6.82524 1.81895 6.46384 1.95992 6.11157H16.04ZM16.5913 8.50501C16.6018 8.66954 16.6078 8.83442 16.6078 8.99966C16.6078 9.19899 16.6 9.39692 16.5849 9.59204H1.415C1.40024 9.39552 1.39215 9.19618 1.39215 8.99966C1.39215 8.83337 1.39813 8.66849 1.40867 8.50501H16.5913ZM16.3691 10.8977C16.2738 11.2693 16.1502 11.6329 15.9992 11.9855H2.00071C1.85129 11.6332 1.72543 11.2686 1.63086 10.8977H16.3691ZM15.2827 13.2905C15.0145 13.6821 14.7114 14.0484 14.3764 14.3828H3.62352C3.28953 14.0484 2.98543 13.6821 2.71719 13.2905H15.2827ZM12.6365 15.6839C11.5516 16.2735 10.3106 16.6082 8.99996 16.6082C7.68266 16.6082 6.4434 16.2731 5.3634 15.6839H12.6365Z" fill="#B22234"/>
<path d="M9.42746 1.40415V9.64513H1.41992C1.40129 9.43173 1.39215 9.21763 1.39215 8.99966C1.39215 4.79814 4.79809 1.39185 8.99996 1.39185C9.1434 1.39185 9.28614 1.39642 9.42746 1.40415Z" fill="#3C3B6E"/>
<path d="M1.78626 6.57626L1.82072 6.68384L1.76447 6.64236L1.78626 6.57626ZM8.44099 8.33091L8.72259 9.19787L7.98571 8.66173H8.89591L8.15868 9.19787L8.44099 8.33091ZM8.44099 6.65537L8.72259 7.52091L7.98571 6.98584H8.89591L8.15868 7.52091L8.44099 6.65537ZM8.44099 4.97876L8.72259 5.84537L7.98571 5.30888H8.89591L8.15868 5.84537L8.44099 4.97876ZM8.44099 3.30322L8.72259 4.16876L7.98571 3.63333H8.89591L8.15868 4.16876L8.44099 3.30322ZM8.44099 1.62732L8.72259 2.49322L7.98571 1.95744H8.89591L8.15868 2.49322L8.44099 1.62732ZM7.4538 7.49314L7.73611 8.35939L6.99853 7.82326H7.90872L7.17536 8.35939L7.4538 7.49314ZM7.4538 5.81724L7.73611 6.68384L6.99853 6.14736H7.90872L7.17536 6.68384L7.4538 5.81724ZM7.4538 4.14169L7.73611 5.00724L6.99853 4.47181H7.90872L7.17536 5.00724L7.4538 4.14169ZM7.4538 2.46474L7.73611 3.33134L6.99853 2.79521H7.90872L7.17536 3.33134L7.4538 2.46474ZM6.47048 8.33091L6.75279 9.19787L6.01521 8.66173H6.92611L6.18888 9.19787L6.47048 8.33091ZM6.47048 6.65537L6.75279 7.52091L6.01521 6.98584H6.92611L6.18888 7.52091L6.47048 6.65537ZM6.47048 4.97876L6.75279 5.84537L6.01521 5.30888H6.92611L6.18888 5.84537L6.47048 4.97876ZM6.47048 3.30322L6.75279 4.16876L6.01521 3.63333H6.92611L6.18888 4.16876L6.47048 3.30322ZM6.52814 1.80275L6.75279 2.49322L6.05212 1.98416L6.11751 1.95744H6.92611L6.18888 2.49322L6.39876 1.84845L6.52814 1.80275ZM5.48364 7.49314L5.76525 8.35939L5.02802 7.82326H5.93892L5.20134 8.35939L5.48364 7.49314ZM5.48364 5.81724L5.76525 6.68384L5.02802 6.14736H5.93892L5.20134 6.68384L5.48364 5.81724ZM5.48364 4.14169L5.76525 5.00724L5.02802 4.47181H5.93892L5.20134 5.00724L5.48364 4.14169ZM5.48364 2.46474L5.76525 3.33134L5.02802 2.79521H5.93892L5.20134 3.33134L5.48364 2.46474ZM4.50032 8.33091L4.77876 9.19787L4.0454 8.66173H4.9556L4.21802 9.19787L4.50032 8.33091ZM4.50032 6.65537L4.77876 7.52091L4.0454 6.98584H4.9556L4.21802 7.52091L4.50032 6.65537ZM4.50032 4.97876L4.77876 5.84537L4.0454 5.30888H4.9556L4.21802 5.84537L4.50032 4.97876ZM4.50032 3.30322L4.77876 4.16876L4.0454 3.63333H4.9556L4.21802 4.16876L4.50032 3.30322ZM3.51314 7.49314L3.79544 8.35939L3.05822 7.82326H3.96876L3.23154 8.35939L3.51314 7.49314ZM3.51314 5.81724L3.79544 6.68384L3.05822 6.14736H3.96876L3.23154 6.68384L3.51314 5.81724ZM3.51314 4.14169L3.79544 5.00724L3.05822 4.47181H3.96876L3.23154 5.00724L3.51314 4.14169ZM2.52665 8.33091L2.80825 9.19787L2.07068 8.66173H2.98544L2.24435 9.19787L2.52665 8.33091ZM2.52665 6.65537L2.80825 7.52091L2.07068 6.98584H2.98544L2.24435 7.52091L2.52665 6.65537ZM2.53157 4.99388L2.80825 5.84537L2.26825 5.45267L2.3456 5.30888H2.98544L2.24435 5.84537L2.51154 5.02552L2.53157 4.99388ZM1.54333 7.49314L1.82072 8.35939L1.447 8.08623L1.43048 8.23634L1.99825 7.82326H1.48216C1.49904 7.71708 1.51802 7.61162 1.53911 7.5072L1.54333 7.49314ZM1.94552 6.14736H1.99825L1.92302 6.20255L1.94552 6.14736Z" fill="white"/>
</g>
<defs>
<clipPath id="clip0_165_222">
<rect width="18" height="18" fill="white"/>
</clipPath>
</defs>
</svg>
