<svg width="320" height="355" viewBox="0 0 320 355" fill="none" xmlns="http://www.w3.org/2000/svg">
<path d="M76.1824 494.79C48.4819 467.001 26.54 433.406 12.4947 396.635C-1.6378 359.901 -7.81382 320.15 -5.77077 281.086C-3.80399 241.907 6.55838 202.977 24.4141 167.952C42.2601 132.912 67.4469 101.736 97.9172 76.984C128.341 52.1851 164.068 33.7802 202.085 23.5594C240.148 13.2766 280 11.1442 318.838 17.0871C396.88 28.7145 468.507 75.076 511.386 140.956" stroke="white" stroke-opacity="0.1" stroke-width="2"/>
<path d="M157.546 537.474C87.6398 503.615 34.1401 438.253 15.1065 362.777C5.48179 325.126 4.09687 285.71 10.979 247.532C17.8665 209.349 33.2205 172.704 55.5459 141.04C99.8164 77.373 172.94 34.5855 250.423 27.8145C288.91 24.2198 328.277 28.8377 364.91 41.7705C401.547 54.5899 435.232 75.5239 463.015 102.492" stroke="white" stroke-opacity="0.1" stroke-width="2"/>
<path d="M81.1533 462.442C56.8927 434.192 38.8572 400.562 28.8718 364.619C18.8625 328.651 16.839 290.693 22.8919 253.918C34.5935 180.043 80.8003 112.946 145.149 75.184C209.282 36.6808 290.276 28.842 360.664 53.861C431.297 78.3144 489.467 135.179 515.557 205.208" stroke="white" stroke-opacity="0.1" stroke-width="2"/>
<path d="M133.45 493.244C100.407 469.421 73.43 437.247 55.9208 400.428C38.3036 363.658 30.3461 322.36 32.7019 281.738C34.9236 241.061 47.6908 200.967 69.3995 166.484C91.0144 131.941 121.431 103.002 157.017 83.1339C228.116 42.652 319.646 42.0146 391.344 81.3949C427.22 100.743 458.03 129.258 480.176 163.458C502.415 197.604 515.734 237.519 518.572 278.158" stroke="white" stroke-opacity="0.1" stroke-width="2"/>
<path d="M496.178 227.638C475.463 159.15 420.871 102.137 353.351 78.455C286.124 54.0789 207.71 63.3811 148.36 103.419C118.617 123.142 93.5358 149.839 75.7367 180.778C57.9115 211.699 47.4543 246.822 45.4941 282.461C43.4358 318.088 49.6968 354.189 63.8772 386.95C77.9639 419.747 99.8775 449.116 127.175 472.1" stroke="white" stroke-opacity="0.1" stroke-width="2"/>
<path d="M489.335 252.732C482.03 215.849 464.783 181.042 440.055 152.693C415.363 124.312 383.25 102.427 347.745 90.0651C312.304 77.5997 273.501 74.6544 236.511 81.4036C199.522 88.1059 164.376 104.644 135.634 128.931C106.804 153.104 84.4112 184.867 71.3924 220.131C58.2972 255.355 54.7341 294.087 60.8153 331.197C66.8268 368.314 82.7964 403.717 106.558 432.888C130.224 462.132 161.601 485.076 196.629 498.711" stroke="white" stroke-opacity="0.1" stroke-width="2"/>
<path d="M183.918 449.828C158.259 434.556 136.467 412.657 121.281 386.951C106.027 361.261 97.4541 331.886 96.4833 301.936C95.4307 271.887 101.909 241.988 115.335 215.329C128.679 188.65 148.935 165.337 173.494 148.306C198.027 131.209 226.73 120.472 256.439 117.349C286.281 114.165 316.748 118.43 344.247 129.857C399.714 152.278 442.096 204.613 452.248 263.446" stroke="white" stroke-opacity="0.1" stroke-width="2"/>
<path d="M480.733 293.477C480.447 260.265 471.971 227.317 456.138 198.193C440.384 169.043 417.384 143.796 389.841 125.346C362.328 106.842 330.33 95.208 297.352 91.816C264.321 88.3739 230.526 92.9002 199.796 105.22C137.956 129.428 89.782 185.734 75.7182 250.605C68.4427 282.891 69.1662 317.151 77.7634 349.078C86.3213 381.059 102.89 410.863 125.486 435.148" stroke="white" stroke-opacity="0.1" stroke-width="2"/>
<path d="M116.319 403.088C99.5473 378.283 88.7818 349.61 85.0607 319.935C81.3592 290.193 84.5148 259.561 94.5502 231.467C114.178 174.912 162.227 128.938 219.569 111.842C248.062 103.106 278.913 101.225 308.382 106.268C337.84 111.281 366.04 123.31 390.068 141.188C438.574 176.711 468.442 235.593 467.952 295.702" stroke="white" stroke-opacity="0.1" stroke-width="2"/>
<path d="M442.297 293.886C442.028 261.047 431.917 228.882 413.412 201.894C395.014 174.881 368.424 153.405 338.239 141.243C308.234 128.977 274.026 125.97 242.073 132.521C210.179 138.988 180.328 155.234 157.335 178.565C134.266 201.821 118.353 231.826 112.234 263.792C105.998 295.841 109.359 329.978 121.971 359.857C134.455 389.918 156.22 416.289 183.439 434.375C210.627 452.573 242.881 462.317 275.749 462.277" stroke="white" stroke-opacity="0.1" stroke-width="2"/>
<path d="M225.027 586.041C180.126 578.271 137.057 559.813 100.563 532.693C64.0003 505.653 33.8394 470.126 13.1343 429.542C-28.8186 348.208 -29.6456 248.045 11.04 166.069C50.7679 83.9424 130.375 22.8065 220.405 6.2115C265.17 -2.29959 311.488 -0.381832 355.498 11.9342C399.425 24.234 440.28 46.9604 473.889 77.5408" stroke="white" stroke-opacity="0.1" stroke-width="2"/>
<path d="M364.215 211.668C388.527 235.736 402.01 270.842 399.994 304.951C398.426 339.286 381.396 372.613 354.733 394.061C328.256 415.885 292.017 425.631 258.301 420.223C224.191 415.098 192.924 394.893 174.236 366.151" stroke="white" stroke-opacity="0.1" stroke-width="2"/>
<path d="M326.559 197.424C355.817 211.616 378.14 238.895 386.158 270.528C394.313 301.925 388.144 336.781 369.212 363.305C350.736 389.929 320.103 407.828 287.669 410.681C255.519 413.921 221.81 402.184 198.734 379.424" stroke="white" stroke-opacity="0.1" stroke-width="2"/>
<path d="M354.626 232.141C374.152 254.553 382.865 286.01 377.853 315.222C373.171 344.695 354.778 371.41 329.14 386.454C303.532 401.809 271.331 404.929 243.252 394.953C215.072 385.195 191.951 362.569 181.528 334.647" stroke="white" stroke-opacity="0.1" stroke-width="2"/>
<path d="M330.661 224.223C355.78 241.958 370.654 273.15 368.593 303.836C367.135 334.632 348.729 363.786 321.791 378.604C295.004 393.867 260.584 394.083 233.562 379.269C206.4 364.839 187.605 335.945 185.684 305.183" stroke="white" stroke-opacity="0.1" stroke-width="2"/>
<path d="M199.49 322.545C206.804 346.649 226.015 366.7 249.771 375.056C273.434 383.62 301.043 380.369 321.93 366.27C342.985 352.463 356.898 328.419 358.141 303.244C359.746 278.11 348.8 252.571 329.387 236.492" stroke="white" stroke-opacity="0.1" stroke-width="2"/>
<path d="M207.745 312.541C212.353 336.555 230.538 357.469 253.716 365.34C276.769 373.574 303.985 368.721 322.575 352.729C341.516 337.081 351.087 311.284 346.865 287.055C343.12 262.877 325.664 241.38 302.771 232.686" stroke="white" stroke-opacity="0.1" stroke-width="2"/>
<path d="M297.192 264.79C308.603 271.51 316.047 284.089 316.363 297.202C316.947 310.482 310.401 323.327 299.476 330.898C288.923 338.501 274.068 339.978 262.085 334.941C249.948 330.084 240.589 318.438 238.426 305.685" stroke="white" stroke-opacity="0.1" stroke-width="2"/>
<path d="M216.85 299.239C216.848 318.823 227.223 337.837 243.566 348.66C259.626 359.687 281.371 361.879 299.404 354.556C317.551 347.465 331.767 330.859 335.864 311.847C340.249 292.741 334.716 271.848 321.249 257.608" stroke="white" stroke-opacity="0.1" stroke-width="2"/>
<path d="M318.401 270.782C327.141 283.497 329.271 300.674 324.023 315.222C318.964 329.811 306.428 341.81 291.649 346.209C276.829 350.764 259.837 347.977 247.489 338.618C234.876 329.335 227.223 314.196 227.3 298.584" stroke="white" stroke-opacity="0.1" stroke-width="2"/>
<path d="M248.255 298.905C248.118 310.276 255.724 321.16 266.279 325.338C271.321 327.429 277.439 327.977 282.966 326.848C288.418 325.743 293.564 322.962 297.595 318.867C301.633 314.781 304.349 309.621 305.397 304.154C306.492 298.598 305.894 292.511 303.736 287.486C299.433 276.93 288.47 269.542 277.089 269.733" stroke="white" stroke-opacity="0.1" stroke-width="2"/>
<path d="M300.041 167.044C341.043 173.908 377.47 201.034 396.053 237.933C415.116 274.886 415.44 320.082 397.017 357.335C379.017 394.567 343.001 422.167 302.14 429.747C261.835 437.78 217.61 425.429 187.302 397.434" stroke="white" stroke-opacity="0.1" stroke-width="2"/>
</svg>
