<svg width="606" height="503" viewBox="0 0 606 503" fill="none" xmlns="http://www.w3.org/2000/svg">
<path d="M169.726 569.134C120.577 519.828 81.6456 460.22 56.725 394.978C31.6496 329.799 20.6915 259.269 24.3165 189.957C27.8062 120.442 46.1922 51.3681 77.8737 -10.777C109.538 -72.9472 154.227 -128.264 208.291 -172.181C262.271 -216.182 325.661 -248.838 393.115 -266.973C460.651 -285.218 531.36 -289.001 600.272 -278.457C738.741 -257.826 865.829 -175.567 941.909 -58.6753" stroke="white" stroke-opacity="0.1" stroke-width="2"/>
<path d="M314.09 644.869C190.055 584.792 95.1306 468.819 61.3592 334.903C44.282 268.099 41.8248 198.162 54.0357 130.422C66.2563 62.6743 93.4989 -2.34567 133.111 -58.5264C211.66 -171.491 341.404 -247.409 478.882 -259.423C547.169 -265.801 617.019 -257.608 682.017 -234.661C747.022 -211.915 806.791 -174.772 856.085 -126.922" stroke="white" stroke-opacity="0.1" stroke-width="2"/>
<path d="M178.546 511.739C135.501 461.614 103.5 401.945 85.783 338.17C68.0234 274.353 64.4332 207.003 75.1728 141.753C95.9349 10.6773 177.92 -108.374 292.095 -175.375C405.885 -243.691 549.594 -257.6 674.483 -213.209C799.807 -169.821 903.018 -68.9258 949.31 55.3276" stroke="white" stroke-opacity="0.1" stroke-width="2"/>
<path d="M271.337 566.391C212.708 524.122 164.843 467.035 133.776 401.708C102.518 336.465 88.3988 263.19 92.5786 191.115C96.5207 118.942 119.174 47.8031 157.691 -13.381C196.043 -74.6716 250.012 -126.017 313.151 -161.269C439.303 -233.097 601.705 -234.228 728.92 -164.355C792.575 -130.025 847.24 -79.4315 886.535 -18.7499C925.992 41.8349 949.625 112.657 954.66 184.762" stroke="white" stroke-opacity="0.1" stroke-width="2"/>
<path d="M914.926 95.1253C878.171 -26.3944 781.309 -127.552 661.508 -169.571C542.228 -212.822 403.097 -196.317 297.792 -125.277C245.018 -90.2833 200.517 -42.9147 168.936 11.9804C137.308 66.8445 118.754 129.164 115.276 192.397C111.624 255.611 122.733 319.665 147.893 377.792C172.887 435.986 211.769 488.095 260.203 528.874" stroke="white" stroke-opacity="0.1" stroke-width="2"/>
<path d="M902.784 139.65C889.823 74.2066 859.223 12.4502 815.348 -37.8513C771.536 -88.2069 714.557 -127.038 651.561 -148.972C588.678 -171.089 519.83 -176.315 454.199 -164.34C388.568 -152.448 326.208 -123.104 275.211 -80.0115C224.059 -37.1205 184.327 19.2362 161.227 81.8047C137.993 144.304 131.671 213.026 142.461 278.869C153.127 344.726 181.462 407.542 223.622 459.301C265.612 511.188 321.284 551.898 383.435 576.09" stroke="white" stroke-opacity="0.1" stroke-width="2"/>
<path d="M360.883 489.357C315.355 462.26 276.69 423.405 249.745 377.794C222.68 332.212 207.469 280.093 205.746 226.952C203.879 173.636 215.372 120.585 239.195 73.2845C262.87 25.9487 298.811 -15.4169 342.386 -45.6349C385.915 -75.9689 436.843 -95.0199 489.556 -100.561C542.506 -106.21 596.564 -98.643 645.355 -78.3681C743.77 -38.5859 818.969 54.2721 836.981 158.659" stroke="white" stroke-opacity="0.1" stroke-width="2"/>
<path d="M887.523 211.943C887.014 153.015 871.977 94.5549 843.884 42.8808C815.931 -8.83974 775.123 -53.637 726.252 -86.3722C677.435 -119.204 620.661 -139.846 562.149 -145.865C503.541 -151.972 443.579 -143.941 389.055 -122.083C279.331 -79.1299 193.856 20.7751 168.903 135.876C155.994 193.161 157.278 253.949 172.532 310.597C187.716 367.341 217.114 420.221 257.206 463.311" stroke="white" stroke-opacity="0.1" stroke-width="2"/>
<path d="M240.941 406.427C211.183 362.414 192.081 311.541 185.479 258.888C178.912 206.116 184.511 151.766 202.317 101.919C237.142 1.5733 322.396 -79.9998 424.138 -110.332C474.692 -125.833 529.433 -129.17 581.72 -120.223C633.987 -111.328 684.022 -89.9855 726.656 -58.2634C812.72 4.76524 865.715 109.239 864.845 215.891" stroke="white" stroke-opacity="0.1" stroke-width="2"/>
<path d="M819.324 212.668C818.849 154.403 800.907 97.3313 768.074 49.4465C735.431 1.5172 688.252 -36.5869 634.695 -58.1668C581.457 -79.9303 520.762 -85.2644 464.067 -73.6412C407.478 -62.1668 354.512 -33.3427 313.715 8.05379C272.785 49.3169 244.55 102.555 233.693 159.273C222.628 216.138 228.592 276.708 250.969 329.722C273.119 383.059 311.737 429.849 360.032 461.939C408.273 494.227 465.501 511.517 523.818 511.445" stroke="white" stroke-opacity="0.1" stroke-width="2"/>
<path d="M433.822 731.041C354.155 717.255 277.736 684.504 212.985 636.385C148.112 588.408 94.597 525.373 57.8598 453.364C-16.5774 309.052 -18.0448 131.333 54.144 -14.1177C124.633 -159.835 265.881 -268.309 425.62 -297.753C505.048 -312.854 587.23 -309.452 665.317 -287.599C743.257 -265.776 815.746 -225.452 875.379 -171.193" stroke="white" stroke-opacity="0.1" stroke-width="2"/>
<path d="M680.784 66.7885C723.92 109.494 747.843 171.782 744.267 232.301C741.485 293.222 711.268 352.355 663.96 390.409C616.982 429.132 552.683 446.426 492.86 436.828C432.339 427.736 376.862 391.886 343.703 340.889" stroke="white" stroke-opacity="0.1" stroke-width="2"/>
<path d="M613.972 41.5159C665.883 66.6975 705.492 115.099 719.717 171.225C734.186 226.932 723.242 288.778 689.65 335.839C656.868 383.078 602.517 414.837 544.969 419.898C487.924 425.648 428.114 404.822 387.17 364.439" stroke="white" stroke-opacity="0.1" stroke-width="2"/>
<path d="M663.77 103.114C698.416 142.881 713.875 198.694 704.981 250.525C696.674 302.819 664.039 350.221 618.55 376.913C573.114 404.157 515.979 409.692 466.159 391.993C416.159 374.68 375.135 334.534 356.641 284.992" stroke="white" stroke-opacity="0.1" stroke-width="2"/>
<path d="M621.249 89.0662C665.818 120.533 692.208 175.877 688.552 230.323C685.965 284.965 653.307 336.693 605.511 362.985C557.982 390.065 496.91 390.45 448.965 364.164C400.771 338.561 367.423 287.295 364.015 232.713" stroke="white" stroke-opacity="0.1" stroke-width="2"/>
<path d="M388.512 263.519C401.488 306.286 435.575 341.863 477.726 356.69C519.71 371.884 568.697 366.117 605.757 341.099C643.115 316.602 667.801 273.941 670.007 229.273C672.855 184.677 653.433 139.364 618.988 110.834" stroke="white" stroke-opacity="0.1" stroke-width="2"/>
<path d="M403.159 245.769C411.335 288.377 443.6 325.484 484.724 339.45C525.628 354.06 573.917 345.449 606.901 317.074C640.508 289.309 657.491 243.538 649.999 200.548C643.354 157.649 612.382 119.506 571.763 104.082" stroke="white" stroke-opacity="0.1" stroke-width="2"/>
<path d="M561.864 161.044C582.112 172.967 595.319 195.286 595.879 218.553C596.916 242.115 585.302 264.907 565.917 278.34C547.192 291.83 520.835 294.45 499.574 285.512C478.039 276.895 461.433 256.232 457.596 233.604" stroke="white" stroke-opacity="0.1" stroke-width="2"/>
<path d="M419.314 222.167C419.31 256.914 437.719 290.651 466.715 309.855C495.211 329.42 533.794 333.31 565.789 320.316C597.989 307.734 623.211 278.27 630.48 244.537C638.262 210.638 628.444 173.566 604.548 148.302" stroke="white" stroke-opacity="0.1" stroke-width="2"/>
<path d="M599.497 171.676C615.004 194.236 618.784 224.713 609.471 250.525C600.494 276.41 578.253 297.7 552.029 305.507C525.734 313.588 495.586 308.643 473.677 292.037C451.297 275.567 437.719 248.705 437.855 221.005" stroke="white" stroke-opacity="0.1" stroke-width="2"/>
<path d="M475.036 221.575C474.793 241.749 488.288 261.061 507.016 268.474C515.961 272.184 526.817 273.156 536.623 271.153C546.297 269.193 555.428 264.259 562.58 256.994C569.745 249.744 574.563 240.587 576.422 230.888C578.365 221.03 577.304 210.23 573.476 201.314C565.841 182.584 546.39 169.476 526.196 169.814" stroke="white" stroke-opacity="0.1" stroke-width="2"/>
<path d="M566.92 -12.3874C639.669 -0.209312 704.303 47.921 737.274 113.391C771.097 178.957 771.674 259.149 738.985 325.246C707.048 391.308 643.144 440.279 570.644 453.728C499.132 467.98 420.661 446.066 366.886 396.395" stroke="white" stroke-opacity="0.1" stroke-width="2"/>
</svg>
