<svg width="18" height="19" viewBox="0 0 18 19" fill="none" xmlns="http://www.w3.org/2000/svg">
<path d="M1.5015 7.65349C1.48425 7.96174 1.65675 8.24899 1.93725 8.37799L7.56525 10.9595L10.1467 16.5867C10.2697 16.8537 10.5367 17.024 10.8285 17.024L10.8712 17.0225C11.0218 17.0141 11.1663 16.9605 11.2859 16.8687C11.4055 16.7769 11.4946 16.6512 11.5417 16.508L15.738 3.73399C15.8257 3.46549 15.7552 3.16924 15.5557 2.96899C15.3562 2.76874 15.0607 2.70049 14.7907 2.78674L2.016 6.98374C1.87273 7.03052 1.74695 7.11951 1.65514 7.23902C1.56333 7.35854 1.50977 7.50301 1.5015 7.65349Z" fill="#E0222D"/>
</svg>
