<svg width="18" height="19" viewBox="0 0 18 19" fill="none" xmlns="http://www.w3.org/2000/svg">
<g clip-path="url(#clip0_165_203)">
<path d="M12.75 0.5H5.25C4.65326 0.5 4.08097 0.737053 3.65901 1.15901C3.23705 1.58097 3 2.15326 3 2.75V16.25C3 16.8467 3.23705 17.419 3.65901 17.841C4.08097 18.2629 4.65326 18.5 5.25 18.5H12.75C13.3467 18.5 13.919 18.2629 14.341 17.841C14.7629 17.419 15 16.8467 15 16.25V2.75C15 2.15326 14.7629 1.58097 14.341 1.15901C13.919 0.737053 13.3467 0.5 12.75 0.5ZM4.5 14.75V3.125C4.5 3.02554 4.53951 2.93016 4.60984 2.85984C4.68016 2.78951 4.77554 2.75 4.875 2.75H13.125C13.2245 2.75 13.3198 2.78951 13.3902 2.85984C13.4605 2.93016 13.5 3.02554 13.5 3.125V14.75C13.5 14.8495 13.4605 14.9448 13.3902 15.0152C13.3198 15.0855 13.2245 15.125 13.125 15.125H4.875C4.77554 15.125 4.68016 15.0855 4.60984 15.0152C4.53951 14.9448 4.5 14.8495 4.5 14.75Z" fill="#E0222D"/>
</g>
<defs>
<clipPath id="clip0_165_203">
<rect width="18" height="18" fill="white" transform="translate(0 0.5)"/>
</clipPath>
</defs>
</svg>
