<svg width="18" height="18" viewBox="0 0 18 18" fill="none" xmlns="http://www.w3.org/2000/svg">
<path d="M15.6234 6.65156H2.36249C2.50311 6.24375 2.68593 5.85 2.89686 5.48438C4.1203 3.375 6.39843 1.96875 8.99999 1.96875C11.6016 1.96875 13.8797 3.375 15.0891 5.48438C15.3 5.85 15.4828 6.24375 15.6234 6.65156Z" fill="white"/>
<path d="M16.0312 9.00005C16.0312 9.81567 15.8906 10.6172 15.6234 11.3485H2.3625C2.10937 10.6172 1.96875 9.81567 1.96875 9.00005C1.96875 8.18442 2.10937 7.38286 2.3625 6.65161H15.6234C15.8906 7.38286 16.0312 8.18442 16.0312 9.00005Z" fill="#35469C"/>
<path d="M15.6234 11.3484C15.4828 11.7562 15.3 12.15 15.0891 12.5156C13.8797 14.625 11.6016 16.0312 8.99999 16.0312C6.39843 16.0312 4.12031 14.625 2.91093 12.5156C2.69999 12.15 2.51718 11.7562 2.37656 11.3484H15.6234Z" fill="#ED2424"/>
</svg>
