<svg width="13" height="13" viewBox="0 0 13 13" fill="none" xmlns="http://www.w3.org/2000/svg">
<path d="M11.5956 10.6994L9.20664 8.31035C9.7818 7.54466 10.0923 6.61265 10.0912 5.655C10.0912 3.20887 8.10113 1.21875 5.655 1.21875C3.20887 1.21875 1.21875 3.20887 1.21875 5.655C1.21875 8.10113 3.20887 10.0912 5.655 10.0912C6.61265 10.0923 7.54466 9.7818 8.31035 9.20664L10.6994 11.5956C10.8203 11.7037 10.978 11.7614 11.1402 11.7569C11.3023 11.7524 11.4565 11.6859 11.5712 11.5712C11.6859 11.4565 11.7524 11.3023 11.7569 11.1402C11.7614 10.978 11.7037 10.8203 11.5956 10.6994ZM2.48625 5.655C2.48625 5.02828 2.67209 4.41563 3.02028 3.89454C3.36847 3.37344 3.86336 2.96729 4.44237 2.72746C5.02138 2.48762 5.65851 2.42487 6.27319 2.54714C6.88787 2.6694 7.45249 2.9712 7.89564 3.41435C8.3388 3.85751 8.64059 4.42213 8.76286 5.03681C8.88513 5.65148 8.82238 6.28861 8.58254 6.86763C8.34271 7.44664 7.93656 7.94153 7.41546 8.28972C6.89436 8.6379 6.28172 8.82375 5.655 8.82375C4.8149 8.82274 4.00951 8.48857 3.41547 7.89453C2.82143 7.30049 2.48726 6.49509 2.48625 5.655Z" fill="#414141"/>
</svg>
