<svg width="452" height="150" viewBox="0 0 452 150" fill="none" xmlns="http://www.w3.org/2000/svg">
<path d="M106.243 182.488C75.5867 151.733 51.3032 114.553 35.7589 73.8579C20.1182 33.2028 13.2831 -10.7902 15.5442 -54.0234C17.7208 -97.3833 29.1891 -140.468 48.9504 -179.231C68.7009 -218.01 96.5757 -252.513 130.298 -279.907C163.968 -307.352 203.508 -327.722 245.582 -339.033C287.707 -350.413 331.812 -352.773 374.796 -346.196C461.166 -333.328 540.437 -282.019 587.892 -209.108" stroke="#E0E4F1" stroke-width="2"/>
<path d="M196.29 229.727C118.923 192.255 59.7138 119.917 38.6489 36.3865C27.997 -5.28269 26.4643 -48.9055 34.0809 -91.1583C41.7035 -133.416 58.696 -173.972 83.404 -209.015C132.399 -279.476 213.327 -326.83 299.078 -334.324C341.672 -338.302 385.241 -333.192 425.784 -318.879C466.33 -304.691 503.611 -281.523 534.358 -251.677" stroke="#E0E4F1" stroke-width="2"/>
<path d="M111.745 146.688C84.8952 115.422 64.9349 78.204 53.8839 38.4245C42.8063 -1.38154 40.5669 -43.3908 47.2658 -84.0904C60.2161 -165.849 111.354 -240.107 182.571 -281.899C253.547 -324.511 343.185 -333.187 421.085 -305.498C499.256 -278.435 563.634 -215.501 592.508 -137.998" stroke="#E0E4F1" stroke-width="2"/>
<path d="M169.622 180.777C133.052 154.412 103.196 118.804 83.8184 78.0558C64.3212 37.361 55.5144 -8.34442 58.1216 -53.3009C60.5804 -98.319 74.7101 -142.692 98.7356 -180.855C122.657 -219.085 156.32 -251.112 195.703 -273.101C274.39 -317.903 375.689 -318.608 455.039 -275.025C494.744 -253.612 528.841 -222.054 553.351 -184.204C577.963 -146.414 592.704 -102.239 595.844 -57.2636" stroke="#E0E4F1" stroke-width="2"/>
<path d="M571.06 -113.175C548.134 -188.972 487.717 -252.069 412.991 -278.279C338.59 -305.256 251.807 -294.961 186.123 -250.65C153.206 -228.823 125.448 -199.277 105.749 -165.036C86.0216 -130.815 74.4485 -91.9432 72.279 -52.5013C70.001 -13.0715 76.9302 26.8817 92.624 63.1387C108.214 99.4368 132.466 131.94 162.677 157.376" stroke="#E0E4F1" stroke-width="2"/>
<path d="M563.487 -85.4023C555.403 -126.223 536.315 -164.743 508.948 -196.119C481.621 -227.528 446.08 -251.749 406.787 -265.43C367.563 -279.225 324.619 -282.485 283.682 -275.016C242.745 -267.598 203.848 -249.295 172.039 -222.416C140.132 -195.663 115.35 -160.51 100.941 -121.483C86.4487 -82.4996 82.5053 -39.6342 89.2355 1.43567C95.8886 42.514 113.562 81.6953 139.86 113.98C166.051 146.344 200.777 171.737 239.543 186.827" stroke="#E0E4F1" stroke-width="2"/>
<path d="M225.476 132.727C197.078 115.825 172.961 91.5898 156.154 63.1398C139.273 34.708 129.785 2.19889 128.71 -30.9481C127.545 -64.2036 134.714 -97.2939 149.574 -126.798C164.341 -156.324 186.759 -182.125 213.94 -200.974C241.091 -219.895 272.857 -231.778 305.736 -235.234C338.764 -238.757 372.482 -234.038 402.916 -221.391C464.302 -196.577 511.207 -138.657 522.443 -73.5459" stroke="#E0E4F1" stroke-width="2"/>
<path d="M553.968 -40.3097C553.651 -77.066 544.271 -113.531 526.748 -145.762C509.313 -178.023 483.859 -205.965 453.376 -226.384C422.926 -246.863 387.513 -259.738 351.016 -263.492C314.46 -267.302 277.059 -262.292 243.049 -248.658C174.609 -221.866 121.294 -159.551 105.729 -87.7565C97.6775 -52.0252 98.4783 -14.1088 107.993 21.2257C117.464 56.6193 135.801 89.6035 160.808 116.481" stroke="#E0E4F1" stroke-width="2"/>
<path d="M150.663 80.9995C132.102 53.5468 120.187 21.8144 116.069 -11.0275C111.973 -43.9442 115.465 -77.8449 126.571 -108.937C148.294 -171.528 201.471 -222.409 264.932 -241.328C296.466 -250.997 330.61 -253.079 363.224 -247.498C395.826 -241.949 427.035 -228.637 453.628 -208.851C507.31 -169.537 540.366 -104.371 539.823 -37.8471" stroke="#E0E4F1" stroke-width="2"/>
<path d="M511.43 -39.8575C511.133 -76.2002 499.942 -111.799 479.462 -141.667C459.101 -171.563 429.673 -195.33 396.267 -208.791C363.06 -222.366 325.201 -225.693 289.838 -218.443C254.541 -211.286 221.503 -193.307 196.056 -167.486C170.526 -141.748 152.915 -108.54 146.142 -73.1625C139.241 -37.6929 142.961 0.0872133 156.918 33.1546C170.734 66.4234 194.822 95.609 224.946 115.625C255.036 135.765 290.733 146.549 327.108 146.505" stroke="#E0E4F1" stroke-width="2"/>
<path d="M270.972 283.477C221.28 274.878 173.614 254.45 133.225 224.436C92.7608 194.51 59.3811 155.192 36.4663 110.277C-9.96387 20.2623 -10.8792 -90.5903 34.1485 -181.315C78.1162 -272.206 166.219 -339.866 265.857 -358.232C315.399 -367.652 366.66 -365.529 415.367 -351.899C463.983 -338.286 509.197 -313.135 546.394 -279.291" stroke="#E0E4F1" stroke-width="2"/>
<path d="M425.015 -130.85C451.921 -104.212 466.843 -65.3602 464.612 -27.6114C462.877 10.3882 444.029 47.2723 414.521 71.0083C385.218 95.1616 345.112 105.949 307.797 99.9624C270.047 94.291 235.443 71.9297 214.761 40.12" stroke="#E0E4F1" stroke-width="2"/>
<path d="M383.34 -146.614C415.72 -130.907 440.426 -100.716 449.299 -65.7075C458.324 -30.9603 451.497 7.61576 430.545 36.9701C410.097 66.4355 376.195 86.245 340.3 89.4021C304.718 92.9885 267.412 79.9984 241.873 54.8092" stroke="#E0E4F1" stroke-width="2"/>
<path d="M414.403 -108.192C436.013 -83.3872 445.655 -48.5737 440.108 -16.2443C434.926 16.3745 414.57 45.9411 386.196 62.59C357.856 79.5838 322.218 83.0363 291.143 71.9961C259.955 61.1972 234.367 36.1563 222.831 5.25476" stroke="#E0E4F1" stroke-width="2"/>
<path d="M387.88 -116.954C415.68 -97.3263 432.141 -62.8058 429.86 -28.8448C428.247 5.23795 407.877 37.5034 378.064 53.9027C348.418 70.7939 310.324 71.0339 280.419 54.6383C250.358 38.6683 229.557 6.6911 227.431 -27.3543" stroke="#E0E4F1" stroke-width="2"/>
<path d="M242.711 -8.13935C250.805 18.5367 272.067 40.728 298.358 49.9761C324.546 59.4534 355.101 55.8562 378.217 40.2516C401.519 24.9715 416.917 -1.63828 418.293 -29.4997C420.07 -57.3166 407.955 -85.5808 386.471 -103.377" stroke="#E0E4F1" stroke-width="2"/>
<path d="M251.847 -19.2111C256.946 7.3661 277.072 30.5112 302.723 39.2228C328.237 48.3359 358.357 42.9647 378.931 25.2655C399.893 7.94735 410.486 -20.6027 405.813 -47.4174C401.668 -74.1755 382.35 -97.967 357.013 -107.588" stroke="#E0E4F1" stroke-width="2"/>
<path d="M350.839 -72.0577C363.469 -64.6208 371.706 -50.6997 372.056 -36.1866C372.702 -21.4901 365.459 -7.27356 353.367 1.10514C341.688 9.52002 325.247 11.1541 311.986 5.57911C298.553 0.20435 288.195 -12.6845 285.802 -26.7985" stroke="#E0E4F1" stroke-width="2"/>
<path d="M261.923 -33.9328C261.92 -12.2589 273.403 8.78434 291.489 20.7627C309.263 32.9666 333.33 35.3929 353.287 27.2879C373.371 19.4398 389.104 1.06167 393.638 -19.9791C398.492 -41.1237 392.368 -64.2471 377.463 -80.006" stroke="#E0E4F1" stroke-width="2"/>
<path d="M374.312 -65.4264C383.985 -51.3545 386.342 -32.3445 380.533 -16.2443C374.934 -0.0983144 361.062 13.1812 344.704 18.0507C328.303 23.0915 309.498 20.0067 295.832 9.64912C281.873 -0.624074 273.404 -17.3791 273.488 -34.6574" stroke="#E0E4F1" stroke-width="2"/>
<path d="M353.992 -180.236C399.369 -172.639 439.684 -142.618 460.25 -101.781C481.347 -60.8849 481.707 -10.8648 461.317 30.3631C441.397 71.5692 401.536 102.115 356.315 110.503C311.709 119.393 262.763 105.724 229.221 74.742" stroke="#E0E4F1" stroke-width="2"/>
</svg>
